# xmcd
#
# Track frame offsets: 
#        150
#        8732
#        20155
#        30630
#        40805
#        60502
#        78057
#        96075
#        110997
#        129037
#        161595
#        174985
#        199072
#        208790
#
# Disc length: 3037 seconds
#
# Revision: 0
# Processed by: cddbd v1.5.2PL0 Copyright (c) Steve Scherf et al.
# Submitted via: ExactAudioCopy v1.3
#
DISCID=ad0bdb0e
DTITLE=Hollywood Blue Flames - Est. A Long Time Ago
DYEAR=2004
DGENRE=Blues
TTITLE0=Flambe'd
TTITLE1=Black Cat Bone
TTITLE2=Nit Wit
TTITLE3=Bunk's Blues
TTITLE4=He's a Blues Man
TTITLE5=Long Black Cadillac
TTITLE6=Takin' Care of Business
TTITLE7=Soul Sanctuary
TTITLE8=Soon Forgotton
TTITLE9=Coco Puffin'
TTITLE10=I'm A Lucky, Lucky Man
TTITLE11=Jo Angelyn
TTITLE12=You Don't Know My Mind
TTITLE13=Miss Nitroglycerite
EXTD=
EXTT0=
EXTT1=
EXTT2=
EXTT3=
EXTT4=
EXTT5=
EXTT6=
EXTT7=
EXTT8=
EXTT9=
EXTT10=
EXTT11=
EXTT12=
EXTT13=
PLAYORDER=
